{"title":"Iron Man 2013 R6-FANTA","uid":8455731,"size":2244813261,"categoryP":"video","categoryS":"movies","magnet":"?xt=urn:btih:6caabd6c3535441380e751dda5ec84e742c5d2ac&amp;dn=Iron+Man+2013+R6-FANTA&amp;tr=udp%3A%2F%2Ftracker.openbittorrent.com%3A80&amp;tr=udp%3A%2F%2Fopen.demonii.com%3A1337&amp;tr=udp%3A%2F%2Ftracker.coppersurfer.tk%3A6969&amp;tr=udp%3A%2F%2Fexodus.desync.com%3A6969","seeders":0,"leechers":0,"uploader":"xxxlavalxxx","files":-1,"time":1368060417,"description":"\n &lt;a href=&quot;\nhttp://www.imdb.com/title/tt1300854/&quot; rel=&quot;nofollow&quot; target=&quot;_NEW&quot;&gt;\nhttp://www.imdb.com/title/tt1300854/&lt;/a&gt;\n\n\n[b]Marvel's &quot;Iron Man 3&quot; pits brash-but-brilliant industrialist Tony Stark/Iron Man against an enemy whose reach knows no bounds. When Stark finds his personal world destroyed at his enemy's hands, he embarks on a harrowing quest to find those responsible. This journey, at every turn, will test his mettle. With his back against the wall, Stark is left to survive by his own devices, relying on his ingenuity and instincts to protect those closest to him. As he fights his way back, Stark discovers the answer to the question that has secretly haunted him: does the man make the suit or does the suit make the man? \n\n\n\nDirector:\n Shane Black \n\nWriters:\n Drew Pearce (screenplay), Shane Black (screenplay)\n\nStars:\n Robert Downey Jr., Gwyneth Paltrow, Guy Pearce\n\nGenres:\n  Action |  Sci-Fi |  Thriller \n\nCountry:\n USA | China \n\nLanguage:\n English \n[/b]\n\n\n\n\nFormat                                   : AVI\n Format/Info                              : Audio Video Interleave\n Format profile                           : OpenDML\n Format settings                          : rec\n File size                                : 2.05 GiB\n Duration                                 : 2h 13mn\n Overall bit rate                         : 2 199 Kbps\n Writing application                      : AVI-Mux GUI 1.17.8.3, Feb 16 201019:42:50\n\n Video\n ID                                       : 0\n Format                                   : MPEG-4 Visual\n Format profile                           : Advanced Simple@L5\n Format settings, BVOP                    : 2\n Format settings, QPel                    : No\n Format settings, GMC                     : No warppoints\n Format settings, Matrix                  : Default (MPEG)\n Muxing mode                              : Packed bitstream\n Codec ID                                 : XVID\n Codec ID/Hint                            : XviD\n Duration                                 : 2h 13mn\n Bit rate                                 : 2 000 Kbps\n Width                                    : 720 pixels\n Height                                   : 304 pixels\n Display aspect ratio                     : 2.35:1\n Frame rate                               : 29.970 fps\n Color space                              : YUV\n Chroma subsampling                       : 4:2:0\n Bit depth                                : 8 bits\n Scan type                                : Progressive\n Compression mode                         : Lossy\n Bits/(Pixel*Frame)                       : 0.305\n Stream size                              : 1.86 GiB (91%)\n Writing library                          : XviD 73\n\n Audio\n ID                                       : 1\n Format                                   : AC-3\n Format/Info                              : Audio Coding 3\n Mode extension                           : CM (complete main)\n Format settings, Endianness              : Big\n Codec ID                                 : 2000\n Duration                                 : 2h 13mn\n Bit rate mode                            : Constant\n Bit rate                                 : 192 Kbps\n Channel(s)                               : 2 channels\n Channel positions                        : Front: L R\n Sampling rate                            : 48.0 KHz\n Bit depth                                : 16 bits\n Compression mode                         : Lossy\n Stream size                              : 183 MiB (9%)\n Alignment                                : Aligned on interleaves\n Interleave, duration                     : 64 ms (1.92 video frames)\n Interleave, preload duration             : 192 ms\n Title                                    : Iron Man 2013 CAM FULL-AUDIO\n\n NOTES: \n\n Most is in CAM english audio and rest is in some other foriegn language\n\n\n\n\n    &lt;a href=&quot;\thttp://addpix.net/viewer.php?file=23716502448547080831.jpg&quot; rel=&quot;nofollow&quot; target=&quot;_NEW&quot;&gt;\thttp://addpix.net/viewer.php?file=23716502448547080831.jpg&lt;/a&gt;\n    &lt;a href=&quot;\thttp://addpix.net/viewer.php?file=80737025808753471844.jpg&quot; rel=&quot;nofollow&quot; target=&quot;_NEW&quot;&gt;\thttp://addpix.net/viewer.php?file=80737025808753471844.jpg&lt;/a&gt;\n    &lt;a href=&quot;\thttp://addpix.net/viewer.php?file=57154485940067185820.jpg&quot; rel=&quot;nofollow&quot; target=&quot;_NEW&quot;&gt;\thttp://addpix.net/viewer.php?file=57154485940067185820.jpg&lt;/a&gt;\n    &lt;a href=&quot;\thttp://addpix.net/viewer.php?file=71692212351843941007.jpg&quot; rel=&quot;nofollow&quot; target=&quot;_NEW&quot;&gt;\thttp://addpix.net/viewer.php?file=71692212351843941007.jpg&lt;/a&gt;\n    &lt;a href=&quot;\thttp://addpix.net/viewer.php?file=92773144410567656264.jpg&quot; rel=&quot;nofollow&quot; target=&quot;_NEW&quot;&gt;\thttp://addpix.net/viewer.php?file=92773144410567656264.jpg&lt;/a&gt;\n    &lt;a href=&quot;\thttp://addpix.net/viewer.php?file=83000004677749238076.jpg&quot; rel=&quot;nofollow&quot; target=&quot;_NEW&quot;&gt;\thttp://addpix.net/viewer.php?file=83000004677749238076.jpg&lt;/a&gt;","torrent":{"xt":"urn:btih:6caabd6c3535441380e751dda5ec84e742c5d2ac","amp;dn":"Iron+Man+2013+R6-FANTA","amp;tr":["udp%3A%2F%2Ftracker.openbittorrent.com%3A80","udp%3A%2F%2Fopen.demonii.com%3A1337","udp%3A%2F%2Ftracker.coppersurfer.tk%3A6969","udp%3A%2F%2Fexodus.desync.com%3A6969"],"infoHash":"6caabd6c3535441380e751dda5ec84e742c5d2ac","infoHashBuffer":{"type":"Buffer","data":[108,170,189,108,53,53,68,19,128,231,81,221,165,236,132,231,66,197,210,172]},"announce":[],"urlList":[]}}